# xmcd
#
# Track frame offsets:
#  150
#  24785
#  39565
#  60715
#  79478
#  97945
#  116426
#  134515
#  150748
#  170948
#  194734
#  224418
#  251542
#  272744
#  288809
#  308675
#
# Disc length: 4368 seconds
#
# Revision: 0
# Processed by: cddbd v1.5.1PL0 Copyright (c) Steve Scherf et al.
# Submitted via: Collectorz.com Music Collector 6.9
#
DISCID=e6110e10
DTITLE=Various Artists: Greg Brown - Honky Tonk 8
DYEAR=1900
DGENRE=
TTITLE0=Greg Brown - The Poet Game
TTITLE1=Greg Brown - Comin' Into You
TTITLE2=Greg Brown - Two Little Feet
TTITLE3=Greg Brown - China
TTITLE4=Greg Brown - Someday When We're Both Alone
TTITLE5=Greg Brown - Further in
TTITLE6=Greg Brown - If You Don't Get It At Home
TTITLE7=Greg Brown - Jesus And Elvis
TTITLE8=Greg Brown - Spring Wind
TTITLE9=Greg Brown - Where Is Maria
TTITLE10=Greg Brown - Just By Myself
TTITLE11=Greg Brown - Billy From the Hills
TTITLE12=Greg Brown - You Drive Me Crazy
TTITLE13=Greg Brown - I'm This Blue
TTITLE14=Greg Brown - Rex Roths Daughter
TTITLE15=Greg Brown - Except You And Me Babe
EXTD=
EXTT0=
EXTT1=
EXTT2=
EXTT3=
EXTT4=
EXTT5=
EXTT6=
EXTT7=
EXTT8=
EXTT9=
EXTT10=
EXTT11=
EXTT12=
EXTT13=
EXTT14=
EXTT15=
PLAYORDER=
